<svg xmlns="http://www.w3.org/2000/svg" width="128" height="128" xml:space="preserve"><path fill="#282D33" d="M64.08 125.837c-23.622 0-42.839-19.36-42.839-43.157 0-8.569 2.487-16.85 7.192-23.946l3.321 2.202c-4.271 6.442-6.529 13.962-6.529 21.744 0 21.6 17.43 39.173 38.854 39.173s38.855-17.573 38.855-39.173c0-3.633-.493-7.229-1.465-10.688l3.837-1.078a43.553 43.553 0 0 1 1.612 11.766c.002 23.797-19.217 43.157-42.838 43.157z"/><path fill="#282D33" d="M64.08 125.837c-14.369 0-25.624-18.957-25.624-43.157 0-5.563.611-10.978 1.817-16.093l3.878.914c-1.135 4.815-1.711 9.923-1.711 15.179 0 21.6 9.708 39.173 21.639 39.173 11.923 0 21.623-17.573 21.623-39.173 0-4.951-.512-9.778-1.519-14.35l3.891-.858c1.07 4.853 1.612 9.969 1.612 15.208.002 24.2-11.247 43.157-25.606 43.157z"/><path fill="#282D33" d="M62.087 67.64h3.984v56.205h-3.984z"/><path fill="#282D33" d="M102.263 99.179H24.504l-.484-1.295c-1.844-4.934-2.779-10.05-2.779-15.205 0-5.159.936-10.277 2.782-15.213l.484-1.293h73.471v3.984H27.295a39.164 39.164 0 0 0-2.07 12.521c0 4.229.695 8.432 2.067 12.515h74.97v3.986z"/><g><path fill="#282D33" d="m66.461 70.1-2.454-.508c-5.711-1.182-11.791-3.294-18.59-6.457-10.365-4.823-14.256-9.06-14.355-15.634a525.71 525.71 0 0 0-.075-5.401c-.025-1.408-.05-2.814-.075-5.447l3.985-.038c.025 2.617.05 4.014.075 5.414.025 1.4.051 2.805.076 5.423.051 3.425 1.012 6.935 12.051 12.07 5.541 2.577 10.56 4.423 15.261 5.604l-.38-16.099 3.984-.093.497 21.166z"/><path fill="#282D33" d="m62.436 70.124-.493-21.097 3.984-.093.378 16.171c4.706-1.276 9.71-3.224 15.219-5.92 10.94-5.35 11.832-8.876 11.816-12.311a300.925 300.925 0 0 0-.073-4.795c-.025-1.095-.051-2.199-.076-4.814l3.985-.039c.024 2.587.049 3.68.074 4.762.025 1.109.051 2.209.075 4.858.03 6.584-3.778 10.896-14.051 15.919-6.724 3.29-12.763 5.521-18.462 6.817l-2.376.542z"/><path fill="#282D33" d="M64.237 51.953 0 27.684 63.761 2.163 128 26.439 64.237 51.953zM10.992 27.576l53.204 20.102 52.813-21.133L63.802 6.438l-52.81 21.138z"/><path fill="#282D33" d="m101.391 54.216-.13-18.406-31.706-10.222 1.221-3.792 34.448 11.105.152 21.287z"/><path fill="#282D33" d="M63.89 26.305c-4.783 0-8.277-2.18-8.308-5.183-.026-3 3.563-5.294 8.348-5.34l.148-.001c4.785 0 8.276 2.179 8.303 5.179.029 2.997-3.56 5.296-8.348 5.344l-.143.001zm-4.286-5.223c.325.416 1.823 1.237 4.286 1.237h.104c2.526-.026 4.047-.892 4.365-1.321-.324-.413-1.825-1.231-4.281-1.231h-.109c-2.522.024-4.042.885-4.365 1.315z"/><g><path fill="#282D33" d="M110.819 73.68H96.665V61.117c0-4.429 3.175-8.031 7.077-8.031s7.077 3.603 7.077 8.031V73.68zm-10.17-3.987h6.186v-8.576c0-2.193-1.416-4.047-3.093-4.047s-3.093 1.854-3.093 4.047v8.576z"/></g></g></svg>